<?xml version="1.0" encoding="utf-8"?><svg viewBox="0 0 50 51" xmlns="http://www.w3.org/2000/svg" xmlns:xlink="http://www.w3.org/1999/xlink"><style>:root>svg{display:none}:root>svg:target{display:block}</style><svg fill="none" viewBox="0 0 13 13" id="arrow-down" xmlns="http://www.w3.org/2000/svg"><path d="M10.136 4.407a.5.5 0 0 1 .768.637l-.04.049-3.998 4.25a.5.5 0 0 1-.684.041l-.045-.041-4.001-4.25a.5.5 0 0 1 .682-.729l.046.043L6.501 8.27l3.635-3.863Z" fill="#212B36"/></svg><svg fill="none" viewBox="0 0 50 51" id="arrow-icon-right" xmlns="http://www.w3.org/2000/svg"><circle cx="25" cy="25.299" r="24.5" stroke="#346AFF"/><path d="M20.772 16.613a1 1 0 0 1 1.317-.123l.096.08 8.5 8a1 1 0 0 1 .084 1.368l-.084.089-8.5 8a1 1 0 0 1-1.456-1.365l.086-.091 7.725-7.272-7.725-7.272a1 1 0 0 1-.123-1.317l.08-.097Z" fill="#346AFF"/></svg><svg fill="none" viewBox="0 0 28 28" id="cart" xmlns="http://www.w3.org/2000/svg"><path fill-rule="evenodd" clip-rule="evenodd" d="M2.845 0A3.5 3.5 0 0 1 6.24 2.653l.502 2.013h20.09c.69 0 1.219.593 1.163 1.261l-.019.135-1.958 9.791a3.5 3.5 0 0 1-3.225 2.808l-.207.006H10.572a3.5 3.5 0 0 1-3.34-2.45l-.056-.201-3.2-12.799a1.167 1.167 0 0 0-.999-.876l-.132-.008H1.167A1.167 1.167 0 0 1 1.03.008L1.167 0h1.678Zm6.78 20.417a3.792 3.792 0 1 0 0 7.583 3.792 3.792 0 0 0 0-7.583Zm0 2.333a1.458 1.458 0 1 1 0 2.917 1.458 1.458 0 0 1 0-2.917Zm13.417-2.333a3.792 3.792 0 1 0 0 7.583 3.792 3.792 0 0 0 0-7.583Zm0 2.333a1.458 1.458 0 1 1 0 2.917 1.458 1.458 0 0 1 0-2.917ZM25.41 6.999H7.327l2.113 8.45c.119.477.521.822 1 .877l.132.007h12.015c.51 0 .955-.33 1.11-.804l.034-.133 1.679-8.397Z" fill="#454F5B"/></svg><svg fill="none" viewBox="0 0 28 28" id="clock" xmlns="http://www.w3.org/2000/svg"><path fill-rule="evenodd" clip-rule="evenodd" d="M23.002 1.51c.63-.134 1.25.268 1.383.898l.85 3.995c.133.63-.27 1.25-.9 1.383l-3.993.85a1.167 1.167 0 0 1-.485-2.283l2.852-.606-.606-2.853c-.134-.63.268-1.25.899-1.384Z" fill="#454F5B"/><path fill-rule="evenodd" clip-rule="evenodd" d="M14 3.5C8.201 3.5 3.5 8.201 3.5 14S8.201 24.5 14 24.5c5.8 0 10.5-4.701 10.5-10.5a1.167 1.167 0 1 1 2.333 0c0 7.088-5.745 12.833-12.833 12.833S1.167 21.088 1.167 14 6.912 1.167 14 1.167a12.81 12.81 0 0 1 9.9 4.666l-1.8 1.486A10.476 10.476 0 0 0 14 3.5Z" fill="#454F5B"/><path d="M14.001 6.417c.599 0 1.092.45 1.16 1.03l.007.136-.002 6.47 3.102 2.569c.448.392.524 1.05.2 1.53l-.09.116a1.167 1.167 0 0 1-1.53.2l-.116-.09-3.5-2.917a1.167 1.167 0 0 1-.39-.735l-.009-.143.002-7c0-.644.522-1.166 1.166-1.166Z" fill="#454F5B"/></svg><svg fill="none" viewBox="0 0 13 12" id="new" xmlns="http://www.w3.org/2000/svg"><path fill-rule="evenodd" clip-rule="evenodd" d="M3.5 0h6a3 3 0 0 1 3 3v6a3 3 0 0 1-3 3h-6a3 3 0 0 1-3-3V3a3 3 0 0 1 3-3Z" fill="#FF3710"/><path d="M8.5 3c.39 0 .71.297.747.678l.003.072v4.397c0 .658-.78.987-1.25.56l-.048-.048L5.25 5.765V8.25a.75.75 0 0 1-.678.747L4.5 9a.75.75 0 0 1-.747-.678L3.75 8.25V3.863c0-.658.78-.987 1.25-.559l.048.047L7.75 6.245V3.75c0-.39.297-.71.678-.747L8.5 3Z" fill="#fff"/></svg><svg fill="none" viewBox="0 0 31 30" id="person" xmlns="http://www.w3.org/2000/svg"><path fill-rule="evenodd" clip-rule="evenodd" d="M15.5 1.25a7.188 7.188 0 1 0 0 14.375 7.188 7.188 0 0 0 0-14.375Zm0 2.5a4.688 4.688 0 1 1 0 9.375 4.688 4.688 0 0 1 0-9.375Zm0 13.75c3.236 0 5.413.482 7.38 1.319a11.66 11.66 0 0 1 3.361 2.211c1.435 1.377 2.28 2.842 2.375 4.567l.004.18.005.085v.06l-.006.154a3.516 3.516 0 0 1-3.297 3.293l-.214.006H5.892c-1.87 0-3.4-1.458-3.51-3.3l-.007-.152v-.061l.009-.265c.089-1.617.838-3.006 2.113-4.308l.262-.259a11.66 11.66 0 0 1 3.36-2.211c1.968-.837 4.145-1.319 7.381-1.319Zm0 2.5c-2.884 0-4.732.409-6.402 1.12a9.168 9.168 0 0 0-2.608 1.714c-1.001.96-1.536 1.87-1.607 2.86l-.007.189.007.106c.057.457.421.82.881.878l.128.008h19.216c.519 0 .946-.387 1.01-.886l.006-.107-.007-.189c-.066-.912-.527-1.758-1.384-2.639l-.223-.22a9.168 9.168 0 0 0-2.608-1.715C20.232 20.41 18.384 20 15.5 20Z" fill="#454F5B"/></svg></svg>