<svg xmlns="http://www.w3.org/2000/svg" width="16" height="16" viewBox="0 0 16 16" fill="none">
  <path d="M8.01602 2.6665C8.35791 2.6665 8.63969 2.92386 8.6782 3.25542L8.68268 3.33317L8.68202 7.34983L12.666 7.34983C13.0342 7.34983 13.3327 7.64831 13.3327 8.0165C13.3327 8.35839 13.0753 8.64017 12.7438 8.67868L12.666 8.68317L8.68202 8.68316L8.68268 12.6665C8.68268 13.0347 8.3842 13.3332 8.01602 13.3332C7.67412 13.3332 7.39234 13.0758 7.35383 12.7443L7.34935 12.6665L7.34868 8.68316L3.33268 8.68317C2.96449 8.68317 2.66602 8.38469 2.66602 8.0165C2.66602 7.67461 2.92338 7.39283 3.25493 7.35432L3.33268 7.34983L7.34868 7.34983L7.34935 3.33317C7.34935 2.96498 7.64783 2.6665 8.01602 2.6665Z" fill="#212B36"/>
</svg>